#N canvas -7 0 958 988 12;
#X obj 195 118 osc~ 440;
#X obj 195 151 *~ 0.1;
#X obj 195 187 dac~;
#X floatatom 274 87 5 0 0 0 - - -;
#X floatatom 195 87 5 0 0 0 - - -;
#X obj 130 70 vsl 15 128 50 2000 0 0 empty empty Frequency 0 -9 0 10
-204800 -1 -1 0 1;
#X obj 155 82 vsl 15 128 0 1 0 0 empty empty Amplitude 0 -9 0 10 -261682
-1 -1 15600 1;
#X obj 33 156 random 2000;
#X obj 33 125 bng 15 250 50 0 empty empty empty 17 7 0 10 -260097 -1
-1;
#X obj 33 63 tgl 15 0 empty empty empty 17 7 0 10 -232576 -1 -1 0 1
;
#X obj 33 92 metro 500;
#X connect 0 0 1 0;
#X connect 1 0 2 0;
#X connect 1 0 2 1;
#X connect 3 0 1 1;
#X connect 4 0 0 0;
#X connect 5 0 4 0;
#X connect 6 0 3 0;
#X connect 7 0 5 0;
#X connect 8 0 7 0;
#X connect 9 0 10 0;
#X connect 10 0 8 0;
