#N canvas -8 -8 1920 997 12;
#X obj 167 84 key;
#X floatatom 167 119 5 0 0 0 - - -;
#X msg 167 189 440;
#X obj 167 223 osc~;
#X obj 167 257 *~;
#X obj 167 291 dac~;
#X floatatom 201 258 5 0 1 0 - - -;
#X obj 167 154 select 97 115;
#X msg 211 189 660;
#X connect 0 0 1 0;
#X connect 1 0 7 0;
#X connect 2 0 3 0;
#X connect 3 0 4 0;
#X connect 4 0 5 0;
#X connect 4 0 5 1;
#X connect 6 0 4 1;
#X connect 7 0 2 0;
#X connect 7 1 8 0;
#X connect 8 0 3 0;
